<svg version="1.1" viewBox="0.0 0.0 960.0 720.0" fill="none" stroke="none" stroke-linecap="square" stroke-miterlimit="10" xmlns:xlink="http://www.w3.org/1999/xlink" xmlns="http://www.w3.org/2000/svg"><clipPath id="p.0"><path d="m0 0l960.0 0l0 720.0l-960.0 0l0 -720.0z" clip-rule="nonzero"/></clipPath><g clip-path="url(#p.0)"><path fill="#000000" fill-opacity="0.0" d="m0 0l960.0 0l0 720.0l-960.0 0z" fill-rule="evenodd"/><path fill="#4a86e8" d="m270.56955 270.26648l0 0c0 -1.8960876 1.5370789 -3.433136 3.433136 -3.433136l294.9605 0c0.91052246 0 1.7837524 0.36169434 2.4276123 1.0055237c0.6437988 0.64385986 1.0054932 1.5170898 1.0054932 2.4276123l0 13.732147c0 1.8960571 -1.5370483 3.433136 -3.4331055 3.433136l-294.9605 0c-1.8960571 0 -3.433136 -1.5370789 -3.433136 -3.433136z" fill-rule="evenodd"/><path fill="#000000" fill-opacity="0.0" d="m327.99213 303.0013l301.82678 0l0 101.79529l-301.82678 0z" fill-rule="evenodd"/><path fill="#b1c2ee" d="m417.4524 346.35944q-0.40625 -1.328125 0.1875 -2.390625q0.59375 -1.078125 1.125 -2.25q0.546875 -1.171875 1.078125 -2.640625q0.53125 -1.46875 0.734375 -2.9375q0.203125 -1.484375 -0.015625 -2.875q-0.21875 -1.390625 -1.125 -2.625q-0.25 -0.296875 -1.125 -0.359375q-0.859375 -0.0625 -2.28125 0.375q-1.421875 0.421875 -3.046875 1.375q-1.625 0.953125 -2.96875 2.203125q-1.328125 1.234375 -2.21875 2.671875q-0.875 1.4375 -0.984375 2.828125q-0.109375 1.21875 0.078125 2.25q0.203125 1.03125 0.5625 1.921875q0.359375 0.890625 0.796875 1.71875q0.4375 0.8125 0.828125 1.453125q0.4375 0.78125 1.515625 1.84375q1.078125 1.0625 2.4375 2.53125q1.359375 1.46875 2.75 3.359375q1.40625 1.890625 2.46875 4.3125q1.0625 2.40625 1.484375 5.390625q0.4375 2.984375 -0.046875 6.578125q-0.765625 5.140625 -2.453125 8.625q-1.6875 3.484375 -3.75 5.640625q-2.0625 2.171875 -4.1875 3.15625q-2.125 0.984375 -3.546875 1.28125q-1.046875 0.21875 -2.53125 0.390625q-1.484375 0.1875 -3.171875 -0.078125q-1.6875 -0.25 -3.453125 -1.0625q-1.75 -0.8125 -3.15625 -2.5q-1.53125 -1.828125 -2.40625 -3.953125q-0.796875 -1.796875 -1.203125 -4.203125q-0.40625 -2.40625 0.515625 -5.359375q0.8125 -0.90625 1.5 -1.453125q0.6875 -0.546875 1.375 -0.90625q0.703125 -0.4375 1.59375 -0.828125q1.0 -0.3125 1.953125 -0.53125q0.859375 -0.15625 1.875 -0.1875q1.015625 -0.046875 3.921875 1.03125q-2.171875 2.484375 -2.515625 3.3125q-0.234375 0.484375 -0.3125 0.703125q-0.21875 1.015625 -0.140625 2.578125q0.09375 1.546875 0.625 2.921875q0.546875 1.390625 1.4375 2.25q0.890625 0.859375 2.34375 0.921875q3.890625 0.09375 6.90625 -6.75q1.0 -2.140625 1.03125 -4.34375q0.03125 -2.203125 -0.5625 -4.296875q-0.578125 -2.09375 -1.546875 -3.921875q-0.953125 -1.84375 -1.953125 -3.15625q-1.015625 -1.328125 -2.515625 -2.953125q-1.5 -1.625 -3.03125 -3.625q-1.515625 -2.015625 -2.75 -4.421875q-1.234375 -2.421875 -1.671875 -5.3125q-0.578125 -4.09375 0.75 -7.46875q1.34375 -3.375 3.59375 -5.875q2.25 -2.5 4.9375 -4.0625q2.6875 -1.578125 4.84375 -2.03125q11.671875 -2.328125 15.5 4.234375q1.578125 2.484375 1.71875 5.21875q0.140625 2.71875 -0.328125 4.984375q-0.453125 2.25 -1.203125 3.953125q-0.75 1.6875 -1.171875 1.953125q-0.421875 0.4375 -1.484375 1.0q-1.046875 0.546875 -3.140625 1.0q-0.6875 0.15625 -1.375 0.15625q-0.546875 0 -1.25 -0.078125q-0.703125 -0.09375 -1.84375 -0.6875zm32.414062 11.921875q0.546875 -0.84375 1.578125 -1.078125q1.046875 -0.25 1.828125 0.34375q0.78125 0.59375 0.84375 1.578125q0.0625 0.96875 -0.515625 2.109375q-1.375 2.640625 -3.59375 5.640625q-2.21875 3.0 -4.6875 5.640625q-2.453125 2.625 -4.953125 4.46875q-2.484375 1.828125 -4.484375 1.828125q-2.578125 0 -4.34375 -1.046875q-1.765625 -1.046875 -2.75 -2.546875q-0.984375 -1.5 -1.375 -3.234375q-0.390625 -1.75 -0.234375 -3.203125q0.0625 -1.078125 0.46875 -3.875q0.40625 -2.8125 1.078125 -6.4375q0.671875 -3.640625 1.5 -7.8125q0.828125 -4.171875 2.109375 -6.8125q0.0625 0.609375 -1.109375 0.75q-1.171875 0.140625 -2.171875 0.140625q-2.296875 0 -4.359375 -0.53125q-2.0625 -0.53125 -3.125 -1.078125q-1.40625 -0.703125 -1.265625 -1.859375q0.140625 -1.15625 0.640625 -1.890625q0.5 -0.75 1.28125 -1.3125q0.78125 -0.578125 1.703125 -0.578125q1.328125 0.125 2.734375 0.234375q1.40625 0.09375 3.046875 0.03125q1.203125 -0.078125 2.328125 -0.203125q1.125 -0.125 1.328125 -0.15625q0.640625 -2.375 1.515625 -4.84375q0.875 -2.484375 1.625 -3.546875q0.453125 -0.71875 1.453125 -1.046875q1.0 -0.34375 1.953125 -0.453125q0.953125 -0.125 2.046875 0.015625q1.109375 0.140625 1.859375 1.0625q0.59375 0.96875 0.515625 3.421875q-0.0625 2.453125 -0.421875 4.28125q1.171875 0 3.40625 0.3125q2.25 0.296875 3.84375 0.6875q1.609375 0.390625 2.546875 0.765625q0.9375 0.359375 1.359375 0.46875q1.421875 0.4375 1.484375 1.625q0.078125 1.171875 -0.296875 2.0625q-0.359375 0.890625 -1.296875 1.59375q-0.9375 0.703125 -2.15625 0.46875q-0.703125 -0.078125 -1.53125 -0.265625q-0.8125 -0.203125 -1.9375 -0.328125q-1.109375 -0.125 -2.671875 -0.25q-1.546875 -0.140625 -3.609375 -0.140625q-0.34375 0 -0.84375 0.03125q-0.5 0.03125 -0.546875 -0.6875q0.578125 0.703125 0.328125 1.765625q-0.234375 1.0625 -0.65625 2.25q-0.859375 2.65625 -2.0 5.8125q-1.0 2.734375 -2.40625 6.28125q-1.40625 3.53125 -3.0625 7.375q-0.328125 2.328125 0.0625 3.5q0.390625 1.15625 0.828125 1.546875q0.484375 0.421875 1.34375 0.453125q0.5625 0.078125 1.703125 -0.59375q1.15625 -0.671875 2.609375 -1.984375q1.46875 -1.328125 2.984375 -2.953125q1.515625 -1.640625 2.828125 -3.203125q1.3125 -1.5625 2.296875 -2.828125q0.984375 -1.28125 1.34375 -1.765625zm18.003906 8.125q-0.5 1.9375 -1.71875 4.296875q-1.21875 2.34375 -2.953125 4.109375q-1.71875 1.765625 -3.9375 2.78125q-2.203125 1.015625 -4.84375 1.015625q-3.1875 0 -5.09375 -1.40625q-1.890625 -1.421875 -2.78125 -3.421875q-0.875 -2.015625 -1.046875 -4.203125q-0.1875 -2.203125 -0.1875 -4.0625q0 -1.40625 0.328125 -3.03125q0.3125 -1.640625 0.875 -3.328125q0.5625 -1.6875 1.453125 -3.40625q0.890625 -1.71875 1.953125 -2.96875q0.40625 -1.171875 1.421875 -2.21875q1.03125 -1.0625 2.3125 -1.71875q1.28125 -0.65625 2.6875 -1.0q1.421875 -0.34375 2.796875 -0.34375q0.46875 0 0.734375 0.125q0.28125 0.109375 0.265625 0.09375q0.953125 0.0625 2.46875 0.78125q1.515625 0.703125 2.921875 2.078125q1.40625 1.359375 2.390625 3.453125q0.984375 2.078125 0.984375 4.96875q0 0.59375 -0.078125 1.40625q-0.0625 0.8125 -1.140625 0.703125q0.5625 -1.390625 2.15625 -2.21875q1.609375 -0.84375 3.109375 -1.765625q1.515625 -0.9375 2.78125 -1.875q1.265625 -0.953125 2.015625 -1.703125q1.015625 -0.921875 2.140625 -1.078125q1.140625 -0.15625 1.734375 0.8125q0.59375 0.953125 0.359375 2.0q-0.234375 1.03125 -1.046875 2.046875q-0.421875 0.484375 -1.84375 1.734375q-1.40625 1.234375 -3.3125 2.671875q-1.90625 1.4375 -4.203125 2.828125q-2.28125 1.375 -3.703125 1.84375zm-11.140625 -10.5q-0.046875 0.140625 -0.046875 0.578125q0 0.984375 0.109375 1.96875q0.109375 0.96875 0.46875 1.609375q0.359375 0.625 1.1875 1.078125q0.84375 0.4375 2.546875 0.4375q0.265625 0 0.53125 -0.015625q0.265625 -0.03125 0.359375 0.84375q-0.75 -0.71875 -0.59375 -1.34375q0.15625 -0.640625 0.15625 -1.0625q0.125 -1.1875 0 -2.359375q-0.125 -1.1875 -0.421875 -2.09375q-0.296875 -0.90625 -0.578125 -1.234375q-0.265625 -0.34375 -0.390625 -0.34375q-0.875 0 -1.765625 0.53125q-0.875 0.53125 -1.5625 1.40625zm-4.09375 11.0q0 1.125 0.109375 2.140625q0.125 1.0 0.40625 1.65625q0.296875 0.65625 0.640625 0.953125q0.34375 0.28125 0.890625 0.28125q0.8125 0 1.546875 -0.40625q0.75 -0.421875 1.40625 -1.171875q0.671875 -0.75 1.234375 -1.78125q0.578125 -1.046875 1.90625 -1.40625q0.09375 1.140625 -0.390625 1.171875q-0.484375 0.03125 -1.0625 0.03125q-3.015625 0 -5.171875 -1.75q-2.15625 -1.765625 -1.890625 -3.4375q0.875 0.203125 0.625 1.4375q-0.25 1.234375 -0.25 2.28125zm19.792969 9.4375q-0.65625 1.078125 -1.6875 1.484375q-1.046875 0.421875 -2.078125 0.015625q-1.03125 -0.390625 -1.3125 -1.53125q-0.28125 -1.140625 0.34375 -2.375q0.1875 -0.40625 0.890625 -1.796875q0.703125 -1.40625 1.671875 -3.359375q0.953125 -1.96875 2.09375 -4.25q1.125 -2.296875 2.15625 -4.359375q1.03125 -2.078125 1.90625 -3.703125q0.875 -1.640625 1.171875 -1.484375q-0.390625 0.09375 -0.828125 -0.375q-0.421875 -0.484375 -0.625 -1.90625q-0.171875 -1.21875 0.4375 -2.859375q0.625 -1.640625 1.578125 -3.078125q0.96875 -1.453125 2.296875 -2.609375q1.328125 -1.171875 2.859375 -1.171875q2.625 0 3.6875 1.671875q1.0625 1.65625 1.21875 3.203125q0.171875 1.078125 -0.140625 2.671875q-0.3125 1.59375 -2.03125 2.03125q0.578125 -1.015625 0.703125 -0.9375q0.140625 0.0625 0.546875 0.0625q0.84375 0 1.265625 -0.125q0.4375 -0.140625 1.59375 -0.140625q1.609375 0 2.640625 0.796875q1.03125 0.796875 1.609375 1.84375q0.59375 1.046875 0.859375 2.15625q0.265625 1.109375 0.34375 1.984375q0.25 2.09375 -0.953125 4.125q-1.203125 2.03125 -2.765625 4.203125q-0.890625 1.265625 -1.6875 2.703125q-0.796875 1.421875 -0.71875 2.28125q0.078125 0.53125 0.125 0.609375q0.0625 0.078125 0.8125 0.078125q0.734375 0 1.859375 -0.6875q1.140625 -0.6875 2.484375 -1.921875q1.359375 -1.234375 2.703125 -2.734375q1.359375 -1.515625 2.53125 -2.984375q1.171875 -1.46875 2.0 -2.640625q0.828125 -1.1875 1.1875 -1.6875q0.5625 -0.90625 1.59375 -1.28125q1.046875 -0.390625 2.03125 0.109375q1.0 0.484375 1.203125 1.703125q0.203125 1.203125 -0.65625 2.65625q-0.421875 0.671875 -1.40625 2.171875q-0.96875 1.484375 -2.359375 3.328125q-1.390625 1.828125 -3.109375 3.78125q-1.71875 1.9375 -3.640625 3.59375q-1.90625 1.640625 -3.953125 2.75q-2.046875 1.109375 -4.0625 1.109375q-2.125 0 -3.546875 -0.84375q-1.40625 -0.828125 -2.28125 -2.015625q-0.859375 -1.1875 -1.21875 -2.578125q-0.359375 -1.40625 -0.28125 -2.65625q0.109375 -1.03125 0.515625 -2.046875q0.40625 -1.015625 0.921875 -2.015625q0.53125 -1.015625 1.09375 -1.96875q0.5625 -0.96875 1.03125 -1.890625q1.125 -1.9375 1.734375 -3.125q0.625 -1.203125 0.625 -1.78125q0 -0.234375 0.125 -0.359375q0.140625 -0.125 0.140625 0.234375q-0.265625 0 -0.4375 0.03125q-0.15625 0.03125 -0.359375 0.03125q-0.1875 0 -0.484375 0.03125q-0.296875 0.03125 -0.96875 0.03125q-1.15625 0 -1.84375 -0.296875q-0.671875 -0.296875 -0.390625 -0.953125q0.59375 0.375 -0.34375 1.90625q-0.9375 1.515625 -2.171875 3.578125q-1.21875 2.0625 -2.578125 4.328125q-1.359375 2.265625 -2.5625 4.21875q-1.203125 1.953125 -2.0625 3.359375q-0.84375 1.390625 -1.046875 1.65625zm27.625 0q-0.65625 1.078125 -1.6875 1.484375q-1.046875 0.421875 -2.078125 0.015625q-1.03125 -0.390625 -1.3125 -1.53125q-0.28125 -1.140625 0.34375 -2.375q0.1875 -0.40625 0.890625 -1.796875q0.703125 -1.40625 1.671875 -3.359375q0.953125 -1.96875 2.09375 -4.25q1.125 -2.296875 2.15625 -4.359375q1.03125 -2.078125 1.90625 -3.703125q0.875 -1.640625 1.171875 -1.484375q-0.390625 0.09375 -0.828125 -0.375q-0.421875 -0.484375 -0.625 -1.90625q-0.171875 -1.21875 0.4375 -2.859375q0.625 -1.640625 1.578125 -3.078125q0.96875 -1.453125 2.296875 -2.609375q1.328125 -1.171875 2.859375 -1.171875q2.625 0 3.6875 1.671875q1.0625 1.65625 1.21875 3.203125q0.171875 1.078125 -0.140625 2.671875q-0.3125 1.59375 -2.03125 2.03125q0.578125 -1.015625 0.703125 -0.9375q0.140625 0.0625 0.546875 0.0625q0.84375 0 1.265625 -0.125q0.4375 -0.140625 1.59375 -0.140625q1.609375 0 2.640625 0.796875q1.03125 0.796875 1.609375 1.84375q0.59375 1.046875 0.859375 2.15625q0.265625 1.109375 0.34375 1.984375q0.25 2.09375 -0.953125 4.125q-1.203125 2.03125 -2.765625 4.203125q-0.890625 1.265625 -1.6875 2.703125q-0.796875 1.421875 -0.71875 2.28125q0.078125 0.53125 0.125 0.609375q0.0625 0.078125 0.8125 0.078125q0.734375 0 1.859375 -0.6875q1.140625 -0.6875 2.484375 -1.921875q1.359375 -1.234375 2.703125 -2.734375q1.359375 -1.515625 2.53125 -2.984375q1.171875 -1.46875 2.0 -2.640625q0.828125 -1.1875 1.1875 -1.6875q0.5625 -0.90625 1.59375 -1.28125q1.046875 -0.390625 2.03125 0.109375q1.0 0.484375 1.203125 1.703125q0.203125 1.203125 -0.65625 2.65625q-0.421875 0.671875 -1.40625 2.171875q-0.96875 1.484375 -2.359375 3.328125q-1.390625 1.828125 -3.109375 3.78125q-1.71875 1.9375 -3.640625 3.59375q-1.90625 1.640625 -3.953125 2.75q-2.046875 1.109375 -4.0625 1.109375q-2.125 0 -3.546875 -0.84375q-1.40625 -0.828125 -2.28125 -2.015625q-0.859375 -1.1875 -1.21875 -2.578125q-0.359375 -1.40625 -0.28125 -2.65625q0.109375 -1.03125 0.515625 -2.046875q0.40625 -1.015625 0.921875 -2.015625q0.53125 -1.015625 1.09375 -1.96875q0.5625 -0.96875 1.03125 -1.890625q1.125 -1.9375 1.734375 -3.125q0.625 -1.203125 0.625 -1.78125q0 -0.234375 0.125 -0.359375q0.140625 -0.125 0.140625 0.234375q-0.265625 0 -0.4375 0.03125q-0.15625 0.03125 -0.359375 0.03125q-0.1875 0 -0.484375 0.03125q-0.296875 0.03125 -0.96875 0.03125q-1.15625 0 -1.84375 -0.296875q-0.671875 -0.296875 -0.390625 -0.953125q0.59375 0.375 -0.34375 1.90625q-0.9375 1.515625 -2.171875 3.578125q-1.21875 2.0625 -2.578125 4.328125q-1.359375 2.265625 -2.5625 4.21875q-1.203125 1.953125 -2.0625 3.359375q-0.84375 1.390625 -1.046875 1.65625zm44.953125 -39.1875q-0.265625 0.984375 -1.0 1.890625q-0.71875 0.90625 -1.640625 1.484375q-0.90625 0.5625 -2.109375 0.78125q-1.203125 0.203125 -2.125 -0.609375q-1.890625 -1.421875 -1.984375 -3.1875q-0.078125 -1.78125 0.765625 -3.171875q0.84375 -1.390625 2.078125 -2.34375q1.234375 -0.953125 2.296875 -1.140625q1.390625 -0.265625 2.28125 0.515625q0.890625 0.765625 1.25 1.75q0.375 0.96875 0.40625 2.0625q0.046875 1.09375 -0.21875 1.96875zm-11.59375 12.875q0.609375 -0.765625 1.78125 -1.09375q1.1875 -0.34375 2.265625 -0.515625q1.078125 -0.1875 2.140625 -0.21875q1.0625 -0.046875 1.703125 0.28125q0.828125 0.8125 0.296875 2.5625q-0.515625 1.734375 -1.125 3.546875q-0.59375 1.8125 -1.25 3.6875q-0.65625 1.875 -0.96875 3.03125q-0.359375 1.21875 -0.8125 2.703125q-0.453125 1.46875 -0.8125 2.84375q-0.34375 1.359375 -0.453125 2.375q-0.109375 1.0 0.0625 1.328125q0.203125 0.484375 0.25 0.5625q0.0625 0.0625 0.0625 0.015625q0.875 0 2.671875 -1.296875q1.8125 -1.296875 3.828125 -3.265625q2.03125 -1.96875 3.78125 -4.0q1.765625 -2.046875 2.609375 -3.265625q0.8125 -1.03125 1.90625 -1.40625q1.109375 -0.390625 2.046875 0.28125q0.9375 0.671875 0.984375 1.8125q0.0625 1.140625 -0.59375 2.296875q-1.109375 1.953125 -3.234375 4.578125q-2.125 2.625 -4.515625 5.046875q-2.375 2.421875 -4.8125 4.25q-2.4375 1.828125 -4.265625 1.90625q-1.4375 0.078125 -2.78125 -0.453125q-1.34375 -0.53125 -2.421875 -1.453125q-1.078125 -0.921875 -1.828125 -2.203125q-0.734375 -1.28125 -0.8125 -2.6875q-0.203125 -1.75 0 -4.734375q0.203125 -3.0 0.734375 -6.09375q0.546875 -3.109375 1.4375 -6.0q0.890625 -2.890625 2.125 -4.421875zm30.253906 -12.875q-0.265625 0.984375 -1.0 1.890625q-0.71875 0.90625 -1.640625 1.484375q-0.90625 0.5625 -2.109375 0.78125q-1.203125 0.203125 -2.125 -0.609375q-1.890625 -1.421875 -1.984375 -3.1875q-0.078125 -1.78125 0.765625 -3.171875q0.84375 -1.390625 2.078125 -2.34375q1.234375 -0.953125 2.296875 -1.140625q1.390625 -0.265625 2.28125 0.515625q0.890625 0.765625 1.25 1.75q0.375 0.96875 0.40625 2.0625q0.046875 1.09375 -0.21875 1.96875zm-11.59375 12.875q0.609375 -0.765625 1.78125 -1.09375q1.1875 -0.34375 2.265625 -0.515625q1.078125 -0.1875 2.140625 -0.21875q1.0625 -0.046875 1.703125 0.28125q0.828125 0.8125 0.296875 2.5625q-0.515625 1.734375 -1.125 3.546875q-0.59375 1.8125 -1.25 3.6875q-0.65625 1.875 -0.96875 3.03125q-0.359375 1.21875 -0.8125 2.703125q-0.453125 1.46875 -0.8125 2.84375q-0.34375 1.359375 -0.453125 2.375q-0.109375 1.0 0.0625 1.328125q0.203125 0.484375 0.25 0.5625q0.0625 0.0625 0.0625 0.015625q0.875 0 2.671875 -1.296875q1.8125 -1.296875 3.828125 -3.265625q2.03125 -1.96875 3.78125 -4.0q1.765625 -2.046875 2.609375 -3.265625q0.8125 -1.03125 1.90625 -1.40625q1.109375 -0.390625 2.046875 0.28125q0.9375 0.671875 0.984375 1.8125q0.0625 1.140625 -0.59375 2.296875q-1.109375 1.953125 -3.234375 4.578125q-2.125 2.625 -4.515625 5.046875q-2.375 2.421875 -4.8125 4.25q-2.4375 1.828125 -4.265625 1.90625q-1.4375 0.078125 -2.78125 -0.453125q-1.34375 -0.53125 -2.421875 -1.453125q-1.078125 -0.921875 -1.828125 -2.203125q-0.734375 -1.28125 -0.8125 -2.6875q-0.203125 -1.75 0 -4.734375q0.203125 -3.0 0.734375 -6.09375q0.546875 -3.109375 1.4375 -6.0q0.890625 -2.890625 2.125 -4.421875z" fill-rule="nonzero"/><path fill="#d9d9d9" d="m387.60367 436.00137l0 0c0 -1.8960571 1.5370789 -3.433136 3.433136 -3.433136l294.9605 0c0.91052246 0 1.7837524 0.36169434 2.4276123 1.0055542c0.6437988 0.64382935 1.0054932 1.5170593 1.0054932 2.4275818l0 13.732147c0 1.8960876 -1.5370483 3.433136 -3.4331055 3.433136l-294.9605 0c-1.8960571 0 -3.433136 -1.5370483 -3.433136 -3.433136z" fill-rule="evenodd"/></g></svg>